<svg width="1740" height="1740" viewBox="0 0 1740 1740" fill="none" xmlns="http://www.w3.org/2000/svg">
<path d="M895.594 1033.21H843.539L850.974 1159.6H888.159" fill="#F19103"/>
<path d="M843.766 1033.24L794.26 1017.16L762.264 1139.68L797.626 1151.18" fill="#F19103"/>
<path d="M794.46 1017.29L752.351 986.663L684.057 1093.31L714.138 1115.17" fill="#F19103"/>
<path d="M752.508 986.825L721.913 944.711L624.01 1025.03L645.865 1055.12" fill="#F19103"/>
<path d="M722.016 944.916L705.929 895.41L587.999 941.534L599.487 976.896" fill="#F19103"/>
<path d="M705.967 895.637V843.593L579.531 851.017V888.197" fill="#F19103"/>
<path d="M705.929 843.804L722.016 794.298L599.487 762.307L587.999 797.669" fill="#F19103"/>
<path d="M721.913 794.503L752.508 752.389L645.865 684.1L624.01 714.181" fill="#F19103"/>
<path d="M752.351 752.551L794.46 721.957L714.138 624.053L684.057 645.909" fill="#F19103"/>
<path d="M794.26 722.059L843.766 705.972L797.626 588.042L762.264 599.552" fill="#F19103"/>
<path d="M843.539 706.01H895.594L888.159 579.59H850.974" fill="#F19103"/>
<path d="M895.367 705.972L944.873 722.059L976.869 599.552L941.534 588.042" fill="#F19103"/>
<path d="M944.673 721.957L986.782 752.551L1055.08 645.909L1025 624.053" fill="#F19103"/>
<path d="M986.625 752.389L1017.22 794.503L1115.12 714.181L1093.27 684.1" fill="#F19103"/>
<path d="M1017.12 794.298L1033.2 843.804L1151.13 797.669L1139.65 762.307" fill="#F19103"/>
<path d="M1033.17 843.593V895.648L1159.6 888.197V851.017" fill="#F19103"/>
<path d="M1033.2 895.41L1017.12 944.916L1139.65 976.907L1151.13 941.534" fill="#F19103"/>
<path d="M1017.22 944.711L986.625 986.825L1093.27 1055.12L1115.12 1025.03" fill="#F19103"/>
<path d="M986.782 986.663L944.673 1017.29L1025 1115.19L1055.08 1093.34" fill="#F19103"/>
<path d="M944.873 1017.16L895.367 1033.24L941.507 1151.2L976.869 1139.71" fill="#F19103"/>
<path d="M849.902 1160.14L798.497 1152L786.051 1278.02L822.771 1283.84" fill="#F19103"/>
<path d="M761.09 1139.83L714.711 1116.2L663.944 1232.21L697.071 1249.1" fill="#F19103"/>
<path d="M682.883 1093.08L646.087 1056.29L561.955 1150.94L588.248 1177.24" fill="#F19103"/>
<path d="M622.977 1024.47L599.341 978.081L490.08 1042.1L506.962 1075.23" fill="#F19103"/>
<path d="M587.193 940.685L579.049 889.279L455.351 916.4L461.168 953.125" fill="#F19103"/>
<path d="M579.049 849.946L587.193 798.54L461.168 786.094L455.351 822.82" fill="#F19103"/>
<path d="M599.341 761.133L622.977 714.754L506.962 663.987L490.08 697.114" fill="#F19103"/>
<path d="M646.087 682.937L682.883 646.141L588.248 561.999L561.955 588.291" fill="#F19103"/>
<path d="M714.711 623.014L761.09 599.384L697.071 490.123L663.944 507.022" fill="#F19103"/>
<path d="M798.491 587.231L849.897 579.087L822.777 455.389L786.057 461.206" fill="#F19103"/>
<path d="M889.23 579.087L940.636 587.231L953.082 461.206L916.362 455.389" fill="#F19103"/>
<path d="M978.043 599.384L1024.42 623.014L1075.19 507.022L1042.06 490.144" fill="#F19103"/>
<path d="M1056.25 646.131L1093.05 682.926L1177.18 588.28L1150.89 561.988" fill="#F19103"/>
<path d="M1116.16 714.754L1139.79 761.133L1249.05 697.114L1232.17 663.987" fill="#F19103"/>
<path d="M1151.94 798.535L1160.08 849.94L1283.78 822.82L1277.97 786.094" fill="#F19103"/>
<path d="M1160.08 889.268L1151.94 940.674L1277.97 953.119L1283.78 916.394" fill="#F19103"/>
<path d="M1139.79 978.081L1116.16 1024.47L1232.17 1075.23L1249.05 1042.1" fill="#F19103"/>
<path d="M1093.05 1056.28L1056.25 1093.07L1150.9 1177.21L1177.18 1150.94" fill="#F19103"/>
<path d="M1024.42 1116.2L978.043 1139.83L1042.06 1249.1L1075.19 1232.21" fill="#F19103"/>
<path d="M940.641 1151.98L889.236 1160.13L916.356 1283.83L953.076 1278.01" fill="#F19103"/>
<path d="M895.594 1286.04H843.539L850.974 1583.5H888.159" fill="#F19103"/>
<path d="M765.635 1273.71L716.129 1257.62L631.283 1542.81L666.65 1554.3" fill="#F19103"/>
<path d="M645.849 1221.83L603.735 1191.24L434.908 1436.25L464.988 1458.11" fill="#F19103"/>
<path d="M547.962 1135.44L517.362 1093.33L281.091 1274.18L302.947 1304.26" fill="#F19103"/>
<path d="M481.557 1023.05L465.47 973.541L184.871 1072.53L196.364 1107.89" fill="#F19103"/>
<path d="M453.132 895.637V843.593L155.678 851.017V888.197" fill="#F19103"/>
<path d="M465.47 765.673L481.557 716.161L196.391 631.315L184.898 666.682" fill="#F19103"/>
<path d="M517.362 645.887L547.962 603.778L302.947 434.951L281.091 465.031" fill="#F19103"/>
<path d="M603.735 548.005L645.849 517.406L464.993 281.129L434.913 302.985" fill="#F19103"/>
<path d="M716.129 481.589L765.635 465.508L666.65 184.914L631.283 196.424" fill="#F19103"/>
<path d="M843.539 453.17H895.594L888.159 155.716H850.974" fill="#F19103"/>
<path d="M973.498 465.513L1023 481.595L1107.85 196.429L1072.48 184.914" fill="#F19103"/>
<path d="M1093.28 517.406L1135.4 548.005L1304.23 302.985L1274.14 281.129" fill="#F19103"/>
<path d="M1191.17 603.778L1221.77 645.887L1458.04 465.037L1436.19 434.956" fill="#F19103"/>
<path d="M1257.58 716.167L1273.66 765.678L1554.26 666.687L1542.77 631.32" fill="#F19103"/>
<path d="M1286 843.593V895.648L1583.46 888.208V851.028" fill="#F19103"/>
<path d="M1273.66 973.541L1257.58 1023.05L1542.77 1107.89L1554.26 1072.53" fill="#F19103"/>
<path d="M1221.77 1093.33L1191.17 1135.44L1436.19 1304.27L1458.04 1274.19" fill="#F19103"/>
<path d="M1135.4 1191.21L1093.28 1221.83L1274.14 1458.11L1304.22 1436.25" fill="#F19103"/>
<path d="M1023 1257.62L973.498 1273.71L1072.48 1554.3L1107.85 1542.81" fill="#F19103"/>
<path d="M783.595 1578.78L732.189 1570.66L713.943 1733.41L750.663 1739.23" fill="#F19103"/>
<path d="M568.66 1517.5L522.276 1493.87L454.637 1643.02L487.764 1659.9" fill="#F19103"/>
<path d="M383.172 1392.82L346.377 1356.03L235.925 1476.94L262.217 1503.24" fill="#F19103"/>
<path d="M245.302 1216.9L221.672 1170.52L79.2783 1251.41L96.1556 1284.54" fill="#F19103"/>
<path d="M168.54 1007.01L160.396 955.603L0 988.514L5.81695 1025.24" fill="#F19103"/>
<path d="M160.396 783.638L168.54 732.232L5.7899 713.975L0 750.7" fill="#F19103"/>
<path d="M221.672 568.708L245.302 522.33L96.1556 454.691L79.2783 487.823" fill="#F19103"/>
<path d="M346.366 383.215L383.161 346.42L262.223 235.995L235.925 262.277" fill="#F19103"/>
<path d="M522.276 245.345L568.66 221.71L487.758 79.3215L454.631 96.1988" fill="#F19103"/>
<path d="M732.184 168.578L783.589 160.461L750.657 0L713.938 5.81153" fill="#F19103"/>
<path d="M955.539 160.434L1006.94 168.551L1025.19 5.8007L988.476 0" fill="#F19103"/>
<path d="M1170.47 221.71L1216.86 245.345L1284.5 96.1988L1251.37 79.3215" fill="#F19103"/>
<path d="M1355.96 346.409L1392.76 383.205L1503.21 262.277L1476.92 235.984" fill="#F19103"/>
<path d="M1493.83 522.319L1517.46 568.708L1659.85 487.812L1642.98 454.68" fill="#F19103"/>
<path d="M1570.59 732.227L1578.71 783.632L1739.13 750.695L1733.32 713.97" fill="#F19103"/>
<path d="M1578.74 955.603L1570.62 1007.01L1733.34 1025.24L1739.16 988.514" fill="#F19103"/>
<path d="M1517.46 1170.52L1493.83 1216.9L1642.98 1284.53L1659.85 1251.4" fill="#F19103"/>
<path d="M1392.77 1356.03L1355.97 1392.82L1476.91 1503.25L1503.21 1476.94" fill="#F19103"/>
<path d="M1216.86 1493.87L1170.47 1517.5L1251.37 1659.9L1284.5 1643.02" fill="#F19103"/>
<path d="M1006.95 1570.64L955.544 1578.75L988.481 1739.18L1025.2 1733.36" fill="#F19103"/>
</svg>
